STARTFONT 2.1
FONT -Monotype-Arial Narrow-Bold-I-Normal--14-140-75-75-P-67-iso8859-4
SIZE 14 75 75
FONTBOUNDINGBOX 17 18 -3 -4

STARTPROPERTIES 24
FOUNDRY "Monotype"
FAMILY_NAME "Arial Narrow"
WEIGHT_NAME "Bold"
SLANT "I"
SETWIDTH_NAME "Normal"
ADD_STYLE_NAME ""
PIXEL_SIZE 14
POINT_SIZE 140
RESOLUTION_X 75
RESOLUTION_Y 75
SPACING "P"
AVERAGE_WIDTH 67
CHARSET_REGISTRY "iso8859"
CHARSET_ENCODING "4"
FACE_NAME "Arial Narrow Bold Italic ISO Latin4"
_DEC_DEVICE_FONTNAMES "PS=arialnarrow-bit-lat4"
COPYRIGHT "Copyright (c) 1994 Monotype Typography Ltd."
CAP_HEIGHT 12
X_HEIGHT 9
WEIGHT 10
QUAD_WIDTH 7
DEFAULT_CHAR 160
FONT_DESCENT 4
FONT_ASCENT 14
ENDPROPERTIES

CHARS 191

STARTCHAR space
ENCODING 32
SWIDTH 228 0
DWIDTH 3 0
BBX 0 0 0 0
BITMAP
ENDCHAR

STARTCHAR exclam
ENCODING 33
SWIDTH 273 0
DWIDTH 4 0
BBX 3 11 1 0
BITMAP
60
60
60
60
60
C0
C0
C0
00
C0
C0
ENDCHAR

STARTCHAR quotedbl
ENCODING 34
SWIDTH 389 0
DWIDTH 6 0
BBX 6 4 0 7
BITMAP
6C
6C
D8
D8
ENDCHAR

STARTCHAR numbersign
ENCODING 35
SWIDTH 456 0
DWIDTH 7 0
BBX 8 11 0 0
BITMAP
36
36
36
7F
7F
6C
FE
FE
6C
D8
D8
ENDCHAR

STARTCHAR dollar
ENCODING 36
SWIDTH 456 0
DWIDTH 7 0
BBX 7 13 0 -1
BITMAP
08
3C
7E
6E
70
70
38
1C
2C
EC
F8
30
20
ENDCHAR

STARTCHAR percent
ENCODING 37
SWIDTH 729 0
DWIDTH 11 0
BBX 11 11 0 0
BITMAP
3860
78C0
D980
F300
E600
0600
0CE0
19E0
1B60
33C0
6380
ENDCHAR

STARTCHAR ampersand
ENCODING 38
SWIDTH 592 0
DWIDTH 9 0
BBX 8 11 1 0
BITMAP
1C
3E
36
1C
38
78
DB
CE
E4
7E
3B
ENDCHAR

STARTCHAR quoteright
ENCODING 39
SWIDTH 228 0
DWIDTH 3 0
BBX 2 5 1 6
BITMAP
C0
C0
40
40
80
ENDCHAR

STARTCHAR parenleft
ENCODING 40
SWIDTH 273 0
DWIDTH 4 0
BBX 5 14 1 -3
BITMAP
18
30
60
60
60
C0
C0
C0
C0
C0
C0
C0
60
30
ENDCHAR

STARTCHAR parenright
ENCODING 41
SWIDTH 273 0
DWIDTH 4 0
BBX 5 14 -1 -3
BITMAP
60
30
18
18
18
18
18
18
18
30
30
30
60
C0
ENDCHAR

STARTCHAR asterisk
ENCODING 42
SWIDTH 319 0
DWIDTH 5 0
BBX 5 5 0 6
BITMAP
A8
F8
70
70
D8
ENDCHAR

STARTCHAR plus
ENCODING 43
SWIDTH 479 0
DWIDTH 7 0
BBX 6 8 1 2
BITMAP
30
30
30
FC
FC
30
30
30
ENDCHAR

STARTCHAR comma
ENCODING 44
SWIDTH 228 0
DWIDTH 3 0
BBX 2 5 1 -3
BITMAP
C0
C0
40
40
80
ENDCHAR

STARTCHAR minus
ENCODING 45
SWIDTH 479 0
DWIDTH 7 0
BBX 6 2 1 5
BITMAP
FC
FC
ENDCHAR

STARTCHAR period
ENCODING 46
SWIDTH 228 0
DWIDTH 3 0
BBX 2 2 1 0
BITMAP
C0
C0
ENDCHAR

STARTCHAR slash
ENCODING 47
SWIDTH 228 0
DWIDTH 3 0
BBX 4 12 0 -1
BITMAP
30
30
30
30
60
60
60
60
C0
C0
C0
C0
ENDCHAR

STARTCHAR zero
ENCODING 48
SWIDTH 456 0
DWIDTH 7 0
BBX 6 11 1 0
BITMAP
18
3C
6C
6C
CC
CC
CC
D8
D8
F0
60
ENDCHAR

STARTCHAR one
ENCODING 49
SWIDTH 456 0
DWIDTH 7 0
BBX 6 11 1 0
BITMAP
0C
1C
3C
78
D8
18
18
30
30
30
30
ENDCHAR

STARTCHAR two
ENCODING 50
SWIDTH 456 0
DWIDTH 7 0
BBX 6 11 1 0
BITMAP
38
7C
CC
CC
0C
18
30
60
C0
F8
F8
ENDCHAR

STARTCHAR three
ENCODING 51
SWIDTH 456 0
DWIDTH 7 0
BBX 7 11 0 0
BITMAP
1C
3E
66
06
18
1C
06
06
C6
7C
38
ENDCHAR

STARTCHAR four
ENCODING 52
SWIDTH 456 0
DWIDTH 7 0
BBX 7 11 0 0
BITMAP
02
06
0E
1E
36
2C
6C
FE
FE
0C
0C
ENDCHAR

STARTCHAR five
ENCODING 53
SWIDTH 456 0
DWIDTH 7 0
BBX 6 11 1 0
BITMAP
3C
3C
30
78
7C
6C
0C
CC
D8
F8
70
ENDCHAR

STARTCHAR six
ENCODING 54
SWIDTH 456 0
DWIDTH 7 0
BBX 6 11 1 0
BITMAP
18
3C
6C
60
D8
FC
EC
CC
D8
F8
70
ENDCHAR

STARTCHAR seven
ENCODING 55
SWIDTH 456 0
DWIDTH 7 0
BBX 6 11 1 0
BITMAP
FC
FC
18
18
30
30
30
60
60
60
60
ENDCHAR

STARTCHAR eight
ENCODING 56
SWIDTH 456 0
DWIDTH 7 0
BBX 6 11 1 0
BITMAP
38
7C
6C
6C
38
70
D8
D8
D8
F8
70
ENDCHAR

STARTCHAR nine
ENCODING 57
SWIDTH 456 0
DWIDTH 7 0
BBX 6 11 1 0
BITMAP
38
7C
6C
CC
DC
FC
6C
18
D8
F0
60
ENDCHAR

STARTCHAR colon
ENCODING 58
SWIDTH 273 0
DWIDTH 4 0
BBX 3 8 1 0
BITMAP
60
60
00
00
00
00
C0
C0
ENDCHAR

STARTCHAR semicolon
ENCODING 59
SWIDTH 273 0
DWIDTH 4 0
BBX 3 11 1 -3
BITMAP
60
60
00
00
00
00
C0
C0
40
40
80
ENDCHAR

STARTCHAR less
ENCODING 60
SWIDTH 479 0
DWIDTH 7 0
BBX 6 8 1 1
BITMAP
0C
3C
F0
C0
E0
78
1C
04
ENDCHAR

STARTCHAR equal
ENCODING 61
SWIDTH 479 0
DWIDTH 7 0
BBX 6 5 1 3
BITMAP
FC
FC
00
FC
FC
ENDCHAR

STARTCHAR greater
ENCODING 62
SWIDTH 479 0
DWIDTH 7 0
BBX 6 8 1 1
BITMAP
80
E0
78
1C
3C
F0
C0
80
ENDCHAR

STARTCHAR question
ENCODING 63
SWIDTH 501 0
DWIDTH 8 0
BBX 6 11 1 0
BITMAP
70
F8
CC
CC
18
38
30
60
00
C0
C0
ENDCHAR

STARTCHAR at
ENCODING 64
SWIDTH 800 0
DWIDTH 12 0
BBX 11 14 1 -3
BITMAP
1F80
30C0
6060
C7A0
8FA0
9B20
B320
B320
B360
BFC0
DD80
6060
30C0
1F80
ENDCHAR

STARTCHAR A
ENCODING 65
SWIDTH 592 0
DWIDTH 9 0
BBX 8 11 0 0
BITMAP
07
0F
0F
1B
1B
33
33
7F
7F
C3
C3
ENDCHAR

STARTCHAR B
ENCODING 66
SWIDTH 592 0
DWIDTH 9 0
BBX 8 11 1 0
BITMAP
3E
3F
33
63
7E
7C
66
C6
C6
FC
F8
ENDCHAR

STARTCHAR C
ENCODING 67
SWIDTH 592 0
DWIDTH 9 0
BBX 8 11 1 0
BITMAP
1E
3F
63
63
C0
C0
C0
C6
E6
7C
38
ENDCHAR

STARTCHAR D
ENCODING 68
SWIDTH 592 0
DWIDTH 9 0
BBX 8 11 1 0
BITMAP
3C
3E
33
63
63
63
63
C6
CE
FC
F8
ENDCHAR

STARTCHAR E
ENCODING 69
SWIDTH 547 0
DWIDTH 8 0
BBX 8 11 1 0
BITMAP
3F
3F
30
60
7E
7E
60
C0
C0
FC
FC
ENDCHAR

STARTCHAR F
ENCODING 70
SWIDTH 501 0
DWIDTH 8 0
BBX 8 11 1 0
BITMAP
3F
3F
30
60
7E
7E
60
C0
C0
C0
C0
ENDCHAR

STARTCHAR G
ENCODING 71
SWIDTH 638 0
DWIDTH 10 0
BBX 9 11 1 0
BITMAP
1E00
3F00
7180
6180
C000
CF00
CF00
C300
E300
7E00
3C00
ENDCHAR

STARTCHAR H
ENCODING 72
SWIDTH 592 0
DWIDTH 9 0
BBX 9 11 1 0
BITMAP
3180
3180
3180
6300
7F00
7F00
6300
C600
C600
C600
C600
ENDCHAR

STARTCHAR I
ENCODING 73
SWIDTH 228 0
DWIDTH 4 0
BBX 4 11 1 0
BITMAP
30
30
30
60
60
60
60
C0
C0
C0
C0
ENDCHAR

STARTCHAR J
ENCODING 74
SWIDTH 456 0
DWIDTH 7 0
BBX 8 11 0 0
BITMAP
03
03
03
06
06
06
06
CC
CC
F8
70
ENDCHAR

STARTCHAR K
ENCODING 75
SWIDTH 592 0
DWIDTH 9 0
BBX 9 11 1 0
BITMAP
3180
3300
3600
6C00
7800
7800
6C00
CC00
C600
C600
C300
ENDCHAR

STARTCHAR L
ENCODING 76
SWIDTH 501 0
DWIDTH 8 0
BBX 6 11 1 0
BITMAP
30
30
30
60
60
60
60
C0
C0
FC
FC
ENDCHAR

STARTCHAR M
ENCODING 77
SWIDTH 683 0
DWIDTH 11 0
BBX 11 11 1 0
BITMAP
3060
30E0
31E0
71C0
73C0
72C0
76C0
DD80
DD80
D980
D980
ENDCHAR

STARTCHAR N
ENCODING 78
SWIDTH 592 0
DWIDTH 9 0
BBX 9 11 1 0
BITMAP
3180
3180
3180
7B00
7B00
6B00
6F00
CE00
CE00
C600
C600
ENDCHAR

STARTCHAR O
ENCODING 79
SWIDTH 638 0
DWIDTH 10 0
BBX 9 11 1 0
BITMAP
1E00
3F00
7380
6180
C180
C180
C180
C300
E700
7E00
3C00
ENDCHAR

STARTCHAR P
ENCODING 80
SWIDTH 547 0
DWIDTH 8 0
BBX 8 11 1 0
BITMAP
3E
3F
33
63
63
7E
7C
C0
C0
C0
C0
ENDCHAR

STARTCHAR Q
ENCODING 81
SWIDTH 638 0
DWIDTH 10 0
BBX 9 12 1 -1
BITMAP
1E00
3F00
7380
6180
C180
C180
C180
CB00
E700
7E00
3F00
0300
ENDCHAR

STARTCHAR R
ENCODING 82
SWIDTH 592 0
DWIDTH 9 0
BBX 9 11 1 0
BITMAP
3F00
3F80
3180
6180
7F00
7E00
6600
C600
C300
C300
C300
ENDCHAR

STARTCHAR S
ENCODING 83
SWIDTH 547 0
DWIDTH 8 0
BBX 8 11 1 0
BITMAP
1C
3E
63
63
70
3C
0E
C6
C6
7C
38
ENDCHAR

STARTCHAR T
ENCODING 84
SWIDTH 501 0
DWIDTH 7 0
BBX 8 11 1 0
BITMAP
FF
FF
18
18
30
30
30
60
60
60
60
ENDCHAR

STARTCHAR U
ENCODING 85
SWIDTH 592 0
DWIDTH 9 0
BBX 9 11 1 0
BITMAP
3180
3180
3180
6300
6300
6300
C300
C600
C600
FC00
7800
ENDCHAR

STARTCHAR V
ENCODING 86
SWIDTH 547 0
DWIDTH 8 0
BBX 8 11 2 0
BITMAP
C3
C3
C6
C6
CC
CC
D8
D8
70
70
60
ENDCHAR

STARTCHAR W
ENCODING 87
SWIDTH 774 0
DWIDTH 11 0
BBX 12 11 1 0
BITMAP
C630
C630
CE60
CE60
CAC0
DAC0
D2C0
F380
F380
6300
6300
ENDCHAR

STARTCHAR X
ENCODING 88
SWIDTH 547 0
DWIDTH 8 0
BBX 9 11 0 0
BITMAP
6180
3300
3300
3600
1E00
1C00
3C00
3600
6600
C600
C300
ENDCHAR

STARTCHAR Y
ENCODING 89
SWIDTH 547 0
DWIDTH 8 0
BBX 9 11 1 0
BITMAP
C380
6300
6600
3600
3C00
3800
1800
1800
3000
3000
3000
ENDCHAR

STARTCHAR Z
ENCODING 90
SWIDTH 501 0
DWIDTH 8 0
BBX 8 11 1 0
BITMAP
3F
3F
06
0C
0C
18
30
30
60
FE
FE
ENDCHAR

STARTCHAR bracketleft
ENCODING 91
SWIDTH 273 0
DWIDTH 4 0
BBX 5 14 0 -3
BITMAP
38
30
30
30
30
60
60
60
60
C0
C0
C0
C0
E0
ENDCHAR

STARTCHAR backslash
ENCODING 92
SWIDTH 228 0
DWIDTH 3 0
BBX 4 12 0 -1
BITMAP
C0
C0
C0
C0
60
60
60
60
30
30
30
30
ENDCHAR

STARTCHAR bracketright
ENCODING 93
SWIDTH 273 0
DWIDTH 4 0
BBX 5 14 0 -3
BITMAP
38
18
18
18
18
30
30
30
30
60
60
60
60
E0
ENDCHAR

STARTCHAR asciicircum
ENCODING 94
SWIDTH 479 0
DWIDTH 7 0
BBX 6 6 1 5
BITMAP
20
70
70
58
D8
CC
ENDCHAR

STARTCHAR underscore
ENCODING 95
SWIDTH 456 0
DWIDTH 7 0
BBX 7 2 0 -3
BITMAP
FE
FE
ENDCHAR

STARTCHAR quoteleft
ENCODING 96
SWIDTH 228 0
DWIDTH 3 0
BBX 2 5 1 6
BITMAP
40
80
80
C0
C0
ENDCHAR

STARTCHAR a
ENCODING 97
SWIDTH 456 0
DWIDTH 7 0
BBX 6 8 1 0
BITMAP
38
4C
0C
7C
D8
D8
D8
68
ENDCHAR

STARTCHAR b
ENCODING 98
SWIDTH 501 0
DWIDTH 8 0
BBX 7 11 1 0
BITMAP
30
30
30
6C
76
66
66
C6
CC
EC
D8
ENDCHAR

STARTCHAR c
ENCODING 99
SWIDTH 456 0
DWIDTH 7 0
BBX 6 8 1 0
BITMAP
38
6C
6C
C0
C0
D8
D8
70
ENDCHAR

STARTCHAR d
ENCODING 100
SWIDTH 501 0
DWIDTH 8 0
BBX 8 11 1 0
BITMAP
03
03
03
36
6E
66
C6
CC
CC
DC
6C
ENDCHAR

STARTCHAR e
ENCODING 101
SWIDTH 456 0
DWIDTH 7 0
BBX 6 8 1 0
BITMAP
38
6C
CC
CC
F8
C0
CC
78
ENDCHAR

STARTCHAR f
ENCODING 102
SWIDTH 273 0
DWIDTH 4 0
BBX 6 11 1 0
BITMAP
1C
30
30
F8
60
60
60
C0
C0
C0
C0
ENDCHAR

STARTCHAR g
ENCODING 103
SWIDTH 501 0
DWIDTH 8 0
BBX 9 11 0 -3
BITMAP
1E80
3380
3300
6300
6300
6600
6600
3E00
0600
CC00
7800
ENDCHAR

STARTCHAR h
ENCODING 104
SWIDTH 501 0
DWIDTH 8 0
BBX 7 11 1 0
BITMAP
30
30
30
6C
76
66
66
CC
CC
CC
CC
ENDCHAR

STARTCHAR i
ENCODING 105
SWIDTH 228 0
DWIDTH 4 0
BBX 4 11 1 0
BITMAP
30
30
00
60
60
60
60
C0
C0
C0
C0
ENDCHAR

STARTCHAR j
ENCODING 106
SWIDTH 228 0
DWIDTH 4 0
BBX 6 14 -1 -3
BITMAP
0C
0C
00
18
18
18
30
30
30
30
60
60
60
C0
ENDCHAR

STARTCHAR k
ENCODING 107
SWIDTH 456 0
DWIDTH 7 0
BBX 7 11 1 0
BITMAP
30
30
30
66
6C
78
70
F0
D8
D8
CC
ENDCHAR

STARTCHAR l
ENCODING 108
SWIDTH 228 0
DWIDTH 4 0
BBX 4 11 1 0
BITMAP
30
30
30
60
60
60
60
C0
C0
C0
C0
ENDCHAR

STARTCHAR m
ENCODING 109
SWIDTH 729 0
DWIDTH 10 0
BBX 9 8 1 0
BITMAP
5B00
6D80
6D80
6D80
DB00
DB00
DB00
DB00
ENDCHAR

STARTCHAR n
ENCODING 110
SWIDTH 501 0
DWIDTH 8 0
BBX 7 8 1 0
BITMAP
5C
66
66
66
CC
CC
CC
CC
ENDCHAR

STARTCHAR o
ENCODING 111
SWIDTH 501 0
DWIDTH 8 0
BBX 7 8 1 0
BITMAP
3C
66
66
C6
C6
CC
CC
78
ENDCHAR

STARTCHAR p
ENCODING 112
SWIDTH 501 0
DWIDTH 8 0
BBX 8 11 0 -3
BITMAP
36
3B
33
63
63
66
66
DC
C0
C0
C0
ENDCHAR

STARTCHAR q
ENCODING 113
SWIDTH 501 0
DWIDTH 8 0
BBX 7 11 1 -3
BITMAP
36
6E
66
C6
CC
CC
DC
6C
18
18
18
ENDCHAR

STARTCHAR r
ENCODING 114
SWIDTH 319 0
DWIDTH 5 0
BBX 5 8 1 0
BITMAP
68
78
70
60
C0
C0
C0
C0
ENDCHAR

STARTCHAR s
ENCODING 115
SWIDTH 456 0
DWIDTH 6 0
BBX 6 8 1 0
BITMAP
38
6C
64
30
38
98
D8
70
ENDCHAR

STARTCHAR t
ENCODING 116
SWIDTH 273 0
DWIDTH 4 0
BBX 5 11 1 0
BITMAP
30
30
30
F8
60
60
60
C0
C0
C0
70
ENDCHAR

STARTCHAR u
ENCODING 117
SWIDTH 501 0
DWIDTH 8 0
BBX 7 8 1 0
BITMAP
66
66
66
66
CC
CC
DC
74
ENDCHAR

STARTCHAR v
ENCODING 118
SWIDTH 456 0
DWIDTH 6 0
BBX 6 8 1 0
BITMAP
CC
D8
D8
D0
F0
E0
E0
C0
ENDCHAR

STARTCHAR w
ENCODING 119
SWIDTH 638 0
DWIDTH 9 0
BBX 9 8 1 0
BITMAP
C980
D980
DB00
DB00
FF00
EE00
EE00
CC00
ENDCHAR

STARTCHAR x
ENCODING 120
SWIDTH 456 0
DWIDTH 7 0
BBX 7 8 0 0
BITMAP
66
66
3C
18
30
38
6C
CC
ENDCHAR

STARTCHAR y
ENCODING 121
SWIDTH 456 0
DWIDTH 7 0
BBX 8 11 0 -3
BITMAP
63
66
66
6C
2C
38
38
30
30
60
C0
ENDCHAR

STARTCHAR z
ENCODING 122
SWIDTH 410 0
DWIDTH 6 0
BBX 6 8 0 0
BITMAP
7C
0C
18
30
30
60
C0
F8
ENDCHAR

STARTCHAR braceleft
ENCODING 123
SWIDTH 319 0
DWIDTH 5 0
BBX 5 14 1 -3
BITMAP
18
30
30
30
60
60
C0
C0
60
60
60
60
60
30
ENDCHAR

STARTCHAR bar
ENCODING 124
SWIDTH 230 0
DWIDTH 3 0
BBX 2 15 1 -4
BITMAP
C0
C0
C0
C0
C0
C0
C0
C0
C0
C0
C0
C0
C0
C0
C0
ENDCHAR

STARTCHAR braceright
ENCODING 125
SWIDTH 319 0
DWIDTH 5 0
BBX 5 14 0 -3
BITMAP
60
30
30
30
30
30
18
18
30
30
60
60
60
C0
ENDCHAR

STARTCHAR asciitilde
ENCODING 126
SWIDTH 479 0
DWIDTH 7 0
BBX 6 3 1 4
BITMAP
64
FC
98
ENDCHAR

STARTCHAR space
ENCODING 160
SWIDTH 228 0
DWIDTH 4 0
BBX 0 0 0 0
BITMAP
ENDCHAR

STARTCHAR Aogonek
ENCODING 161
SWIDTH 592 0
DWIDTH 9 0
BBX 9 14 0 -3
BITMAP
0700
0F00
0F00
1B00
1B00
3300
3300
7F00
7F00
C300
C300
0300
0300
0180
ENDCHAR

STARTCHAR afii240
ENCODING 162
SWIDTH 556 0
DWIDTH 8 0
BBX 8 8 1 0
BITMAP
67
66
6C
78
D8
CC
CC
C6
ENDCHAR

STARTCHAR Rcommaaccent
ENCODING 163
SWIDTH 592 0
DWIDTH 9 0
BBX 9 15 1 -4
BITMAP
3F00
3F80
3180
6180
7F00
7E00
6600
C600
C300
C300
C300
0000
1800
1800
3000
ENDCHAR

STARTCHAR currency
ENCODING 164
SWIDTH 456 0
DWIDTH 7 0
BBX 7 7 0 2
BITMAP
44
FE
6C
44
6C
FE
44
ENDCHAR

STARTCHAR Itilde
ENCODING 165
SWIDTH 228 0
DWIDTH 4 0
BBX 6 14 1 0
BITMAP
34
58
00
30
30
30
60
60
60
60
C0
C0
C0
C0
ENDCHAR

STARTCHAR Lcommaaccent
ENCODING 166
SWIDTH 501 0
DWIDTH 8 0
BBX 7 11 1 0
BITMAP
36
32
34
60
60
60
60
C0
C0
FC
FC
ENDCHAR

STARTCHAR section
ENCODING 167
SWIDTH 456 0
DWIDTH 7 0
BBX 8 14 0 -3
BITMAP
1E
37
30
38
3C
6E
66
62
36
3C
1C
4C
EC
78
ENDCHAR

STARTCHAR hungarumlaut
ENCODING 168
SWIDTH 273 0
DWIDTH 4 0
BBX 6 2 0 9
BITMAP
6C
D8
ENDCHAR

STARTCHAR Scaron
ENCODING 169
SWIDTH 547 0
DWIDTH 8 0
BBX 8 14 1 0
BITMAP
1B
0E
00
1C
3E
63
63
70
3C
0E
C6
C6
7C
38
ENDCHAR

STARTCHAR Emacron
ENCODING 170
SWIDTH 547 0
DWIDTH 8 0
BBX 8 13 1 0
BITMAP
1F
00
3F
3F
30
60
7E
7E
60
C0
C0
FC
FC
ENDCHAR

STARTCHAR Gcommaaccent
ENCODING 171
SWIDTH 638 0
DWIDTH 10 0
BBX 9 15 1 -4
BITMAP
1E00
3F00
7180
6180
C000
CF00
CF00
C300
E300
7E00
3C00
0000
1800
1800
3000
ENDCHAR

STARTCHAR afii237
ENCODING 172
SWIDTH 611 0
DWIDTH 7 0
BBX 8 11 1 0
BITMAP
FF
FF
18
18
FC
FC
30
60
60
60
60
ENDCHAR

STARTCHAR hyphen
ENCODING 173
SWIDTH 273 0
DWIDTH 4 0
BBX 4 2 0 3
BITMAP
F0
F0
ENDCHAR

STARTCHAR Zcaron
ENCODING 174
SWIDTH 501 0
DWIDTH 8 0
BBX 8 14 1 0
BITMAP
1B
0E
00
3F
3F
06
0C
0C
18
30
30
60
FE
FE
ENDCHAR

STARTCHAR macron
ENCODING 175
SWIDTH 273 0
DWIDTH 4 0
BBX 4 1 0 10
BITMAP
F0
ENDCHAR

STARTCHAR degree
ENCODING 176
SWIDTH 328 0
DWIDTH 5 0
BBX 4 4 1 7
BITMAP
60
90
90
60
ENDCHAR

STARTCHAR aogonek
ENCODING 177
SWIDTH 456 0
DWIDTH 7 0
BBX 6 11 1 -3
BITMAP
38
4C
0C
7C
D8
D8
D8
68
18
18
0C
ENDCHAR

STARTCHAR ogonek
ENCODING 178
SWIDTH 273 0
DWIDTH 4 0
BBX 3 3 1 -3
BITMAP
C0
C0
60
ENDCHAR

STARTCHAR rcommaaccent
ENCODING 179
SWIDTH 319 0
DWIDTH 5 0
BBX 6 12 0 -4
BITMAP
34
3C
38
30
60
60
60
60
00
60
60
C0
ENDCHAR

STARTCHAR acute
ENCODING 180
SWIDTH 273 0
DWIDTH 4 0
BBX 3 2 1 9
BITMAP
60
C0
ENDCHAR

STARTCHAR itilde
ENCODING 181
SWIDTH 228 0
DWIDTH 3 0
BBX 5 11 0 0
BITMAP
68
B0
00
60
60
60
60
C0
C0
C0
C0
ENDCHAR

STARTCHAR lcommaaccent
ENCODING 182
SWIDTH 228 0
DWIDTH 4 0
BBX 5 15 0 -4
BITMAP
18
18
18
30
30
30
30
60
60
60
60
00
60
60
C0
ENDCHAR

STARTCHAR caron
ENCODING 183
SWIDTH 273 0
DWIDTH 4 0
BBX 5 2 1 9
BITMAP
D8
70
ENDCHAR

STARTCHAR commaaccent
ENCODING 184
SWIDTH 333 0
DWIDTH 5 0
BBX 3 3 0 -4
BITMAP
60
60
C0
ENDCHAR

STARTCHAR scaron
ENCODING 185
SWIDTH 456 0
DWIDTH 6 0
BBX 7 11 1 0
BITMAP
36
1C
00
38
6C
64
30
38
98
D8
70
ENDCHAR

STARTCHAR emacron
ENCODING 186
SWIDTH 456 0
DWIDTH 7 0
BBX 7 11 1 0
BITMAP
3E
00
00
38
6C
CC
CC
F8
C0
CC
78
ENDCHAR

STARTCHAR gcommaaccent
ENCODING 187
SWIDTH 501 0
DWIDTH 8 0
BBX 9 15 0 -3
BITMAP
0300
0600
0600
0000
1E80
3380
3300
6300
6300
6600
6600
3E00
0600
CC00
7800
ENDCHAR

STARTCHAR afii253
ENCODING 188
SWIDTH 333 0
DWIDTH 4 0
BBX 6 11 0 0
BITMAP
18
18
18
7C
30
30
FC
60
60
60
38
ENDCHAR

STARTCHAR afii238
ENCODING 189
SWIDTH 723 0
DWIDTH 9 0
BBX 9 11 1 0
BITMAP
3700
3F80
3980
7180
6300
6300
6300
E600
C600
DE00
DC00
ENDCHAR

STARTCHAR zcaron
ENCODING 190
SWIDTH 410 0
DWIDTH 6 0
BBX 7 11 0 0
BITMAP
36
1C
00
7C
0C
18
30
30
60
C0
F8
ENDCHAR

STARTCHAR afii254
ENCODING 191
SWIDTH 611 0
DWIDTH 8 0
BBX 7 11 1 -3
BITMAP
5C
66
66
66
CC
CC
CC
CC
18
18
70
ENDCHAR

STARTCHAR Amacron
ENCODING 192
SWIDTH 592 0
DWIDTH 9 0
BBX 9 13 0 0
BITMAP
0F80
0000
0700
0F00
0F00
1B00
1B00
3300
3300
7F00
7F00
C300
C300
ENDCHAR

STARTCHAR Aacute
ENCODING 193
SWIDTH 592 0
DWIDTH 9 0
BBX 9 14 0 0
BITMAP
0180
0300
0000
0700
0F00
0F00
1B00
1B00
3300
3300
7F00
7F00
C300
C300
ENDCHAR

STARTCHAR Acircumflex
ENCODING 194
SWIDTH 592 0
DWIDTH 9 0
BBX 9 14 0 0
BITMAP
0700
0D80
0000
0700
0F00
0F00
1B00
1B00
3300
3300
7F00
7F00
C300
C300
ENDCHAR

STARTCHAR Atilde
ENCODING 195
SWIDTH 592 0
DWIDTH 9 0
BBX 9 14 0 0
BITMAP
0680
0B00
0000
0700
0F00
0F00
1B00
1B00
3300
3300
7F00
7F00
C300
C300
ENDCHAR

STARTCHAR Adieresis
ENCODING 196
SWIDTH 592 0
DWIDTH 9 0
BBX 10 14 0 0
BITMAP
0CC0
0CC0
0000
0700
0F00
0F00
1B00
1B00
3300
3300
7F00
7F00
C300
C300
ENDCHAR

STARTCHAR Aring
ENCODING 197
SWIDTH 592 0
DWIDTH 9 0
BBX 9 14 0 0
BITMAP
0300
0480
0480
0700
0F00
0F00
1B00
1B00
3300
3300
7F00
7F00
C300
C300
ENDCHAR

STARTCHAR AE
ENCODING 198
SWIDTH 820 0
DWIDTH 12 0
BBX 13 11 0 0
BITMAP
07F8
0FF8
0D80
1B00
1BF0
33F0
3F00
7E00
6600
C7F0
C7F0
ENDCHAR

STARTCHAR Iogonek
ENCODING 199
SWIDTH 228 0
DWIDTH 4 0
BBX 5 14 0 -3
BITMAP
18
18
18
30
30
30
30
60
60
60
60
C0
C0
70
ENDCHAR

STARTCHAR Ccaron
ENCODING 200
SWIDTH 592 0
DWIDTH 9 0
BBX 8 14 1 0
BITMAP
1B
0E
00
1E
3F
63
63
C0
C0
C0
C6
E6
7C
38
ENDCHAR

STARTCHAR Eacute
ENCODING 201
SWIDTH 547 0
DWIDTH 8 0
BBX 8 14 1 0
BITMAP
06
0C
00
3F
3F
30
60
7E
7E
60
C0
C0
FC
FC
ENDCHAR

STARTCHAR Eogonek
ENCODING 202
SWIDTH 547 0
DWIDTH 8 0
BBX 8 14 1 -3
BITMAP
3F
3F
30
60
7E
7E
60
C0
C0
FC
FC
18
18
0C
ENDCHAR

STARTCHAR Edieresis
ENCODING 203
SWIDTH 547 0
DWIDTH 8 0
BBX 9 14 1 0
BITMAP
1980
1980
0000
3F00
3F00
3000
6000
7E00
7E00
6000
C000
C000
FC00
FC00
ENDCHAR

STARTCHAR Edotaccent
ENCODING 204
SWIDTH 547 0
DWIDTH 8 0
BBX 8 14 1 0
BITMAP
06
06
00
3F
3F
30
60
7E
7E
60
C0
C0
FC
FC
ENDCHAR

STARTCHAR Iacute
ENCODING 205
SWIDTH 228 0
DWIDTH 4 0
BBX 6 14 1 0
BITMAP
0C
18
00
30
30
30
60
60
60
60
C0
C0
C0
C0
ENDCHAR

STARTCHAR Icircumflex
ENCODING 206
SWIDTH 228 0
DWIDTH 4 0
BBX 6 14 1 0
BITMAP
38
6C
00
30
30
30
60
60
60
60
C0
C0
C0
C0
ENDCHAR

STARTCHAR Imacron
ENCODING 207
SWIDTH 228 0
DWIDTH 4 0
BBX 6 13 1 0
BITMAP
7C
00
30
30
30
60
60
60
60
C0
C0
C0
C0
ENDCHAR

STARTCHAR Eth
ENCODING 208
SWIDTH 592 0
DWIDTH 9 0
BBX 8 11 1 0
BITMAP
3C
3E
33
63
FB
FB
63
C6
CE
FC
F8
ENDCHAR

STARTCHAR Ncommaaccent
ENCODING 209
SWIDTH 592 0
DWIDTH 9 0
BBX 9 15 1 -4
BITMAP
3180
3180
3180
7B00
7B00
6B00
6F00
CE00
CE00
C600
C600
0000
3000
3000
6000
ENDCHAR

STARTCHAR Omacron
ENCODING 210
SWIDTH 638 0
DWIDTH 10 0
BBX 9 13 1 0
BITMAP
0F80
0000
1E00
3F00
7380
6180
C180
C180
C180
C300
E700
7E00
3C00
ENDCHAR

STARTCHAR Kcommaaccent
ENCODING 211
SWIDTH 592 0
DWIDTH 9 0
BBX 9 15 1 -4
BITMAP
3180
3300
3600
6C00
7800
7800
6C00
CC00
C600
C600
C300
0000
1800
1800
3000
ENDCHAR

STARTCHAR Ocircumflex
ENCODING 212
SWIDTH 638 0
DWIDTH 10 0
BBX 9 14 1 0
BITMAP
0700
0D80
0000
1E00
3F00
7380
6180
C180
C180
C180
C300
E700
7E00
3C00
ENDCHAR

STARTCHAR Otilde
ENCODING 213
SWIDTH 638 0
DWIDTH 10 0
BBX 9 14 1 0
BITMAP
0D00
1600
0000
1E00
3F00
7380
6180
C180
C180
C180
C300
E700
7E00
3C00
ENDCHAR

STARTCHAR Odieresis
ENCODING 214
SWIDTH 638 0
DWIDTH 10 0
BBX 9 14 1 0
BITMAP
1B00
1B00
0000
1E00
3F00
7380
6180
C180
C180
C180
C300
E700
7E00
3C00
ENDCHAR

STARTCHAR multiply
ENCODING 215
SWIDTH 479 0
DWIDTH 7 0
BBX 6 7 1 2
BITMAP
CC
CC
78
30
78
CC
CC
ENDCHAR

STARTCHAR Oslash
ENCODING 216
SWIDTH 638 0
DWIDTH 10 0
BBX 9 13 1 -1
BITMAP
0180
1F00
3F00
7380
6780
CD80
CD80
D980
FB00
F700
7E00
FC00
8000
ENDCHAR

STARTCHAR Uogonek
ENCODING 217
SWIDTH 592 0
DWIDTH 9 0
BBX 9 14 1 -3
BITMAP
3180
3180
3180
6300
6300
6300
C300
C600
C600
FC00
7800
3000
3000
1C00
ENDCHAR

STARTCHAR Uacute
ENCODING 218
SWIDTH 592 0
DWIDTH 9 0
BBX 9 14 1 0
BITMAP
0300
0600
0000
3180
3180
3180
6300
6300
6300
C300
C600
C600
FC00
7800
ENDCHAR

STARTCHAR Ucircumflex
ENCODING 219
SWIDTH 592 0
DWIDTH 9 0
BBX 9 14 1 0
BITMAP
0700
0D80
0000
3180
3180
3180
6300
6300
6300
C300
C600
C600
FC00
7800
ENDCHAR

STARTCHAR Udieresis
ENCODING 220
SWIDTH 592 0
DWIDTH 9 0
BBX 10 14 1 0
BITMAP
0CC0
0CC0
0000
3180
3180
3180
6300
6300
6300
C300
C600
C600
FC00
7800
ENDCHAR

STARTCHAR Utilde
ENCODING 221
SWIDTH 592 0
DWIDTH 9 0
BBX 9 14 1 0
BITMAP
0680
0B00
0000
3180
3180
3180
6300
6300
6300
C300
C600
C600
FC00
7800
ENDCHAR

STARTCHAR Umacron
ENCODING 222
SWIDTH 592 0
DWIDTH 9 0
BBX 9 13 1 0
BITMAP
0F80
0000
3180
3180
3180
6300
6300
6300
C300
C600
C600
FC00
7800
ENDCHAR

STARTCHAR germandbls
ENCODING 223
SWIDTH 501 0
DWIDTH 8 0
BBX 7 11 1 0
BITMAP
1C
36
36
36
6C
6C
6C
66
66
C6
DC
ENDCHAR

STARTCHAR amacron
ENCODING 224
SWIDTH 456 0
DWIDTH 7 0
BBX 7 11 1 0
BITMAP
3E
00
00
38
4C
0C
7C
D8
D8
D8
68
ENDCHAR

STARTCHAR aacute
ENCODING 225
SWIDTH 456 0
DWIDTH 7 0
BBX 6 11 1 0
BITMAP
0C
18
00
38
4C
0C
7C
D8
D8
D8
68
ENDCHAR

STARTCHAR acircumflex
ENCODING 226
SWIDTH 456 0
DWIDTH 7 0
BBX 6 11 1 0
BITMAP
38
6C
00
38
4C
0C
7C
D8
D8
D8
68
ENDCHAR

STARTCHAR atilde
ENCODING 227
SWIDTH 456 0
DWIDTH 7 0
BBX 7 11 1 0
BITMAP
1A
2C
00
38
6C
0C
7C
D8
D8
D8
68
ENDCHAR

STARTCHAR adieresis
ENCODING 228
SWIDTH 456 0
DWIDTH 7 0
BBX 6 11 1 0
BITMAP
6C
6C
00
38
4C
0C
7C
D8
D8
D8
68
ENDCHAR

STARTCHAR aring
ENCODING 229
SWIDTH 456 0
DWIDTH 7 0
BBX 6 12 1 0
BITMAP
38
6C
38
00
38
6C
0C
7C
D8
D8
D8
68
ENDCHAR

STARTCHAR ae
ENCODING 230
SWIDTH 729 0
DWIDTH 11 0
BBX 10 8 1 0
BITMAP
3B80
4EC0
0CC0
7CC0
CF80
CC00
DCC0
6780
ENDCHAR

STARTCHAR iogonek
ENCODING 231
SWIDTH 228 0
DWIDTH 4 0
BBX 4 11 1 -3
BITMAP
60
60
60
60
C0
C0
C0
C0
C0
C0
70
ENDCHAR

STARTCHAR ccaron
ENCODING 232
SWIDTH 456 0
DWIDTH 7 0
BBX 7 11 1 0
BITMAP
36
1C
00
38
6C
6C
C0
C0
D8
D8
70
ENDCHAR

STARTCHAR eacute
ENCODING 233
SWIDTH 456 0
DWIDTH 7 0
BBX 6 11 1 0
BITMAP
0C
18
00
38
6C
CC
FC
C0
C0
CC
78
ENDCHAR

STARTCHAR eogonek
ENCODING 234
SWIDTH 456 0
DWIDTH 7 0
BBX 6 11 1 -3
BITMAP
38
6C
CC
CC
F8
C0
CC
78
30
30
18
ENDCHAR

STARTCHAR edieresis
ENCODING 235
SWIDTH 456 0
DWIDTH 7 0
BBX 6 11 1 0
BITMAP
6C
6C
00
38
6C
CC
CC
F8
C0
CC
78
ENDCHAR

STARTCHAR edotaccent
ENCODING 236
SWIDTH 456 0
DWIDTH 7 0
BBX 6 11 1 0
BITMAP
18
18
00
38
6C
CC
CC
F8
C0
CC
78
ENDCHAR

STARTCHAR iacute
ENCODING 237
SWIDTH 228 0
DWIDTH 4 0
BBX 4 11 1 0
BITMAP
30
60
00
60
60
60
60
C0
C0
C0
C0
ENDCHAR

STARTCHAR icircumflex
ENCODING 238
SWIDTH 228 0
DWIDTH 4 0
BBX 5 11 1 0
BITMAP
70
D8
00
60
60
60
60
C0
C0
C0
C0
ENDCHAR

STARTCHAR imacron
ENCODING 239
SWIDTH 228 0
DWIDTH 4 0
BBX 4 11 1 0
BITMAP
F0
00
00
60
60
60
60
C0
C0
C0
C0
ENDCHAR

STARTCHAR dcroat
ENCODING 240
SWIDTH 501 0
DWIDTH 8 0
BBX 9 11 1 0
BITMAP
0300
0F80
0300
3600
6E00
6600
C600
CC00
CC00
DC00
6C00
ENDCHAR

STARTCHAR ncommaaccent
ENCODING 241
SWIDTH 501 0
DWIDTH 8 0
BBX 7 12 1 -4
BITMAP
5C
66
66
66
CC
CC
CC
CC
00
30
30
60
ENDCHAR

STARTCHAR omacron
ENCODING 242
SWIDTH 501 0
DWIDTH 8 0
BBX 7 11 1 0
BITMAP
3C
00
00
3C
66
66
C6
C6
CC
CC
78
ENDCHAR

STARTCHAR kcommaaccent
ENCODING 243
SWIDTH 456 0
DWIDTH 7 0
BBX 7 15 1 -4
BITMAP
30
30
30
66
6C
78
70
F0
D8
D8
CC
00
30
30
60
ENDCHAR

STARTCHAR ocircumflex
ENCODING 244
SWIDTH 501 0
DWIDTH 8 0
BBX 7 11 1 0
BITMAP
1C
36
00
3C
66
66
C6
C6
CC
CC
78
ENDCHAR

STARTCHAR otilde
ENCODING 245
SWIDTH 501 0
DWIDTH 8 0
BBX 7 11 1 0
BITMAP
1A
2C
00
3C
66
66
C6
C6
CC
CC
78
ENDCHAR

STARTCHAR odieresis
ENCODING 246
SWIDTH 501 0
DWIDTH 8 0
BBX 7 11 1 0
BITMAP
36
36
00
3C
66
66
C6
C6
CC
CC
78
ENDCHAR

STARTCHAR divide
ENCODING 247
SWIDTH 479 0
DWIDTH 7 0
BBX 6 8 1 2
BITMAP
30
30
00
FC
FC
00
30
30
ENDCHAR

STARTCHAR oslash
ENCODING 248
SWIDTH 501 0
DWIDTH 8 0
BBX 7 9 1 0
BITMAP
02
3C
6E
6E
D6
D6
EC
EC
B8
ENDCHAR

STARTCHAR uogonek
ENCODING 249
SWIDTH 501 0
DWIDTH 8 0
BBX 7 11 1 -3
BITMAP
66
66
66
66
CC
CC
DC
74
0C
0C
06
ENDCHAR

STARTCHAR uacute
ENCODING 250
SWIDTH 501 0
DWIDTH 8 0
BBX 7 11 1 0
BITMAP
0C
18
00
66
66
66
66
CC
CC
DC
74
ENDCHAR

STARTCHAR ucircumflex
ENCODING 251
SWIDTH 501 0
DWIDTH 8 0
BBX 7 11 1 0
BITMAP
1C
36
00
66
66
66
66
CC
CC
DC
74
ENDCHAR

STARTCHAR udieresis
ENCODING 252
SWIDTH 501 0
DWIDTH 8 0
BBX 7 11 1 0
BITMAP
36
36
00
66
66
66
66
CC
CC
FC
74
ENDCHAR

STARTCHAR utilde
ENCODING 253
SWIDTH 501 0
DWIDTH 8 0
BBX 7 11 1 0
BITMAP
1A
2C
00
66
66
66
66
CC
CC
FC
74
ENDCHAR

STARTCHAR umacron
ENCODING 254
SWIDTH 501 0
DWIDTH 8 0
BBX 7 11 1 0
BITMAP
3E
00
00
66
66
66
66
CC
CC
DC
74
ENDCHAR

STARTCHAR dotaccent
ENCODING 255
SWIDTH 273 0
DWIDTH 4 0
BBX 2 2 1 9
BITMAP
C0
C0
ENDCHAR
ENDFONT
